# xmcd CD database file
#
# Track frame offsets:
#	150
#	19708
#	41102
#	61454
#	83676
#	103128
#	125191
#	140829
#	162012
#	181599
#	201370
#	220066
#	240921
#	258131
#	279209
#	299647
#
# Disc length: 4269 seconds
#
# Revision: 0
# Processed by: cddbd v1.5.2PL0 Copyright (c) Steve Scherf et al.
# Submitted via: CDex 1.51
#
DISCID=e810ab10
DTITLE=La Banda Gorda/Kinito Mendez - Grandes del Merengue Vol II
DYEAR=2008
DGENRE=Merengue
TTITLE0=alegre/triste
TTITLE1=la seria
TTITLE2=ella
TTITLE3=el asilo
TTITLE4=le di mi carino
TTITLE5=el decreto
TTITLE6=hasta cuando
TTITLE7=cachamba
TTITLE8=traigo fuego
TTITLE9=anja juan
TTITLE10=dejalo ahi
TTITLE11=la pegue
TTITLE12=y yo parao
TTITLE13=carolina cao
TTITLE14=soy yo
TTITLE15=las mujeres
EXTD=YEAR: 2008
EXTT0=
EXTT1=
EXTT2=
EXTT3=
EXTT4=
EXTT5=
EXTT6=
EXTT7=
EXTT8=
EXTT9=
EXTT10=
EXTT11=
EXTT12=
EXTT13=
EXTT14=
EXTT15=
PLAYORDER=
